<?xml version="1.0" encoding="UTF-8" standalone="no"?>
<svg
   width="730.93854"
   height="450.3717"
   viewBox="0 0 730.93853 450.37169"
   version="1.1"
   id="svg1"
   sodipodi:docname="lotus.svg"
   inkscape:version="1.3.2 (091e20ef0f, 2023-11-25)"
   xmlns:inkscape="http://www.inkscape.org/namespaces/inkscape"
   xmlns:sodipodi="http://sodipodi.sourceforge.net/DTD/sodipodi-0.dtd"
   xmlns="http://www.w3.org/2000/svg"
   xmlns:svg="http://www.w3.org/2000/svg">
  <defs
     id="defs1" />
  <sodipodi:namedview
     id="namedview1"
     pagecolor="#ffffff"
     bordercolor="#666666"
     borderopacity="1.0"
     inkscape:showpageshadow="2"
     inkscape:pageopacity="0.0"
     inkscape:pagecheckerboard="0"
     inkscape:deskcolor="#d1d1d1"
     inkscape:zoom="0.683125"
     inkscape:cx="884.172"
     inkscape:cy="181.51876"
     inkscape:window-width="1920"
     inkscape:window-height="1015"
     inkscape:window-x="0"
     inkscape:window-y="65"
     inkscape:window-maximized="1"
     inkscape:current-layer="svg1"
     showgrid="false" />
  <path
     d="M 837.763,1.514 C 805.375,13.41 800.106,67.316 824.42,138 c 12.182,35.414 24.238,65.167 37.524,92.603 10.415,21.508 16.491,32.004 32.068,55.397 23.227,34.883 43.181,66.676 55.545,88.5 4.362,7.7 9.284,15.105 10.937,16.456 6.341,5.182 24.969,23.856 30.469,30.544 27.882,33.908 45.809,82.489 50.255,136.188 0.775,9.358 1.533,13.984 2.228,13.589 1.92,-1.089 0.138,0.421 -7.946,6.734 -30.477,23.801 -50.834,55.976 -63.021,99.607 -8.392,30.043 -18.01,51.176 -34.591,76.003 -8.928,13.368 -14.903,20.583 -28.261,34.129 -11.989,12.158 -16.119,15.004 -7.476,5.154 35.557,-40.526 56.414,-82.508 61.922,-124.642 1.695,-12.961 0.658,-38.887 -2.07,-51.762 -4.746,-22.407 -12.064,-39.466 -23.38,-54.5 -16.481,-21.897 -38.214,-41.937 -63.357,-58.418 -8.195,-5.371 -28.654,-25.061 -35.414,-34.082 -16.161,-21.565 -20.609,-38.083 -14.002,-52 1.654,-3.484 4.799,-7.791 7.499,-10.271 2.558,-2.348 4.651,-4.684 4.651,-5.191 0,-2.597 -3.619,-1.64 -19.206,5.08 l -17.032,7.343 0.592,8.019 c 0.326,4.411 0.897,21.742 1.27,38.514 l 0.679,30.495 5.67,6.005 c 49.842,52.788 79.386,105.035 90.198,159.506 3.095,15.593 3.336,49.105 0.463,64.5 -4.063,21.773 -12.118,42.934 -23.542,61.848 -7.508,12.43 -8.411,12.274 -4.019,-0.694 17.728,-52.343 13.004,-112.914 -14.128,-181.154 -10.593,-26.645 -33.805,-68.987 -51.297,-93.575 -6.275,-8.821 -8.279,-10.976 -9.976,-10.731 -4.393,0.633 -24.933,33.091 -40.728,64.356 -40.984,81.13 -51.218,156.951 -29.73,220.264 2.461,7.252 4.31,13.186 4.108,13.186 -0.202,0 -2.853,-3.815 -5.893,-8.477 -11.984,-18.386 -21.268,-41.693 -25.578,-64.216 -1.869,-9.767 -2.257,-15.177 -2.247,-31.307 0.013,-21.244 1.228,-30.938 6.338,-50.555 11.834,-45.432 42.332,-95.814 85.551,-141.324 l 7.007,-7.379 1.139,-38.621 c 0.627,-21.242 1.077,-38.674 1,-38.739 C 797.968,413.815 765.471,400 764.808,400 c -0.479,0 -1.134,0.685 -1.455,1.522 -0.378,0.987 0.965,2.886 3.815,5.395 9,7.922 12.694,20.042 9.821,32.217 -1.789,7.577 -7.859,19.244 -14.817,28.476 -8.042,10.671 -29.034,30.912 -38.203,36.835 -14.749,9.529 -26.702,19.263 -40.578,33.043 -27.35,27.163 -38.449,46.471 -45.417,79.012 -3.056,14.271 -3.782,39.492 -1.575,54.741 5.872,40.577 26.642,81.964 59.753,119.063 3.34,3.743 5.806,7.071 5.481,7.397 -0.97,0.969 -18.243,-16.461 -26.717,-26.959 -21.872,-27.1 -37.21,-56.476 -45.922,-87.954 -6.335,-22.891 -14.402,-42.721 -23.618,-58.06 -8.93,-14.863 -22.478,-31.053 -34.779,-41.561 l -4.903,-4.189 0.595,-13.739 c 0.327,-7.556 1.539,-19.814 2.693,-27.239 1.153,-7.425 2.192,-14.29 2.307,-15.255 0.157,-1.305 -1.795,-2.633 -7.602,-5.173 -26.197,-11.461 -45.286,-28.081 -55.215,-48.072 -6.231,-12.545 -7.818,-19.494 -7.767,-34 0.099,-28.333 7.474,-44.144 59.477,-127.5 6.348,-10.175 14.148,-23 17.334,-28.5 5.664,-9.778 12.7,-24.617 12.003,-25.314 -0.193,-0.193 -4.326,2.332 -9.185,5.61 -24.859,16.776 -42.747,38.035 -56.852,67.568 -10.567,22.125 -17.238,45.118 -21.591,74.411 -2.317,15.598 -3.617,54.079 -2.42,71.647 l 0.732,10.73 5.551,6.174 c 11.248,12.511 21.467,30.718 31.53,56.174 3.044,7.7 5.843,15.051 6.219,16.335 0.658,2.24 0.591,2.274 -1.659,0.833 -4.703,-3.014 -24.403,-10.831 -34.245,-13.588 -15.673,-4.391 -29.564,-6.417 -44.577,-6.503 l -13.478,-0.077 -0.803,5.5 -0.802,5.5 5.28,4.473 c 10.177,8.621 20.992,19.565 23.433,23.713 1.911,3.249 2.316,4.968 1.807,7.68 -1.21,6.451 3.998,48.196 8.563,68.634 3.816,17.088 7.057,24.442 19.386,43.988 8.599,13.632 28.772,35.197 49.592,53.012 23.289,19.928 77.805,58.527 108.753,77 5.067,3.025 9.221,5.843 9.23,6.261 0.009,0.419 -3.573,-1.044 -7.961,-3.25 -8.72,-4.384 -11.528,-5.243 -6.022,-1.841 4.727,2.921 32.142,17.72 39.062,21.087 14.975,7.286 45.424,14.416 71.938,16.845 18.598,1.704 60.005,0.582 76.5,-2.073 16.627,-2.677 38.57,-8.384 45,-11.705 21.548,-11.13 77.022,-46.398 106.5,-67.709 39.929,-28.866 70.878,-56.668 87.157,-78.297 9.305,-12.364 18.983,-29.55 22.185,-39.398 2.742,-8.435 5.872,-23.274 8.106,-38.42 2.387,-16.193 4.73,-41.767 4.112,-44.903 -0.401,-2.04 0.146,-4.12 1.844,-7 2.37,-4.023 16.257,-18.095 24.06,-24.38 4.149,-3.343 4.521,-4.952 2.918,-12.615 l -0.606,-2.899 -14.138,0.614 c -26.636,1.155 -49.874,6.987 -73.138,18.356 -6.435,3.145 -8.262,3.747 -6.412,2.113 1.658,-1.465 3.727,-5.601 5.76,-11.515 9.446,-27.481 23.864,-54.381 35.692,-66.595 4.267,-4.407 4.747,-5.404 5.533,-11.5 1.361,-10.549 1.029,-48.289 -0.563,-63.931 -6.181,-60.756 -25.774,-106.484 -59.283,-138.364 -8.589,-8.171 -26.436,-21.338 -27.492,-20.283 -0.786,0.787 1.817,11.167 4.769,19.011 3.5,9.304 8.311,17.93 24.482,43.891 35.471,56.95 47.255,78.489 52.754,96.429 2.335,7.619 2.634,10.292 2.693,24.071 0.059,13.65 -0.21,16.336 -2.255,22.5 -5.509,16.61 -15.528,29.653 -32.237,41.972 -6.118,4.51 -20.675,12.403 -25.841,14.011 l -2.4,0.747 2.4,-3.365 c 3.427,-4.804 3.411,-17.254 -0.036,-27.865 -5.375,-16.547 -21.213,-44.385 -39.542,-69.5 -27.801,-38.094 -36.167,-54.857 -39.675,-79.5 -4.098,-28.79 7.466,-59.222 31.75,-83.554 l 9.097,-9.114 -14.097,-10.505 C 962.332,212.745 942.234,195.368 920.95,174.066 888.359,141.45 868.889,115.168 856.689,87.323 854.719,82.825 850.851,74.5 848.094,68.823 841.005,54.226 838.642,44.994 838.669,32 838.695,19.964 840.735,13.12 846.585,5.457 848.463,2.996 850,0.762 850,0.491 c 0,-1.018 -8.649,-0.295 -12.237,1.023 m -84.132,3.274 c -0.345,0.559 0.905,3.293 2.778,6.077 5.503,8.178 7.086,14.105 6.981,26.135 -0.113,12.841 -2.889,22.95 -10.818,39.404 -2.941,6.103 -7.829,16.271 -10.863,22.596 -17.999,37.529 -56.94,81.337 -109.451,123.131 -7.017,5.584 -12.893,10.494 -13.057,10.909 -0.165,0.415 1.938,4.064 4.673,8.108 15.166,22.425 22.502,46.655 22.511,74.352 0.007,20.354 -3.512,39.222 -11.096,59.5 -5.515,14.743 -8.188,19.521 -18.743,33.5 -34.663,45.904 -53.852,85.26 -49.542,101.605 1.227,4.654 3.525,8.895 4.819,8.895 0.427,0 1.354,-2.812 2.059,-6.25 2.345,-11.434 11.974,-38.775 17.995,-51.093 11.593,-23.718 25.414,-43.041 42.358,-59.218 9.063,-8.653 11.325,-11.512 16.976,-21.461 12.463,-21.939 32.561,-54.006 57.333,-91.478 25.586,-38.702 39.9,-67.84 60.425,-123 14.999,-40.308 20.623,-61.726 23.107,-88 C 795.489,42.405 786.262,15.989 767.182,7.232 761.151,4.464 754.566,3.276 753.631,4.788 m 341.837,28.772 c -36.888,27.558 -63.772,65.626 -70.578,99.94 -1.838,9.27 -1.584,28.064 0.507,37.449 2.303,10.337 7.601,22.864 13.952,32.988 7.276,11.598 54.923,100.373 71.149,132.563 16.515,32.764 24.601,55.959 23.323,66.905 -0.495,4.243 1.488,5.524 4.443,2.869 3.739,-3.359 15.877,-22.798 21.713,-34.774 12.66,-25.976 20.023,-56.499 20.023,-83 0,-35.651 -14.997,-83.077 -32.456,-102.639 -24.445,-27.39 -42.418,-63.922 -48.066,-97.703 -2.1,-12.555 -1.574,-40.469 0.971,-51.558 0.871,-3.796 1.449,-7.035 1.285,-7.199 -0.164,-0.165 -2.984,1.707 -6.266,4.159 M 508.013,32.135 c 0.007,0.201 0.901,4.64 1.986,9.865 3.835,18.474 3.642,36.226 -0.621,56.917 -6.108,29.647 -25.652,65.696 -49.991,92.206 -5.968,6.5 -8.546,10.45 -13.828,21.183 -22.721,46.172 -26.283,92.907 -10.645,139.679 6.867,20.537 16.071,38.137 28.903,55.265 8.015,10.698 10.183,11.379 10.183,3.197 0,-16.728 10.046,-41.349 35.477,-86.947 29.597,-53.068 60.99,-108.297 64.492,-113.461 7.222,-10.648 12.587,-22.827 15.654,-35.539 2.649,-10.985 2.246,-29.53 -0.904,-41.551 C 581.534,105.53 563.854,78.746 536.728,54.182 526.624,45.032 507.962,30.704 508.013,32.135 m 285.654,119.532 c -0.367,0.366 -0.667,1.949 -0.667,3.517 0,4.82 -3.996,21.611 -7.622,32.028 -6.882,19.771 -18.794,41.825 -32.04,59.32 -52.93,69.907 -74.444,104.352 -76.804,122.968 l -0.634,5 7.594,-8 c 39.619,-41.737 72.992,-84.479 87.944,-112.631 6.227,-11.724 10.562,-25.173 10.562,-32.767 0,-6.876 0.294,-7.06 6.669,-4.165 4.338,1.97 6.248,4.473 7.296,9.563 0.432,2.102 1.203,3 2.576,3 1.813,0 1.983,-0.857 2.283,-11.5 0.433,-15.345 -1.552,-61.155 -2.791,-64.412 -0.939,-2.47 -2.938,-3.35 -4.366,-1.921 m 11.335,1.329 c -1.4,2.616 -2.948,32.379 -2.978,57.254 -0.023,18.676 0.078,19.75 1.857,19.75 1.382,0 2.169,-1.14 2.962,-4.289 0.594,-2.36 2.11,-5.255 3.368,-6.434 2.104,-1.97 6.804,-4.277 8.716,-4.277 0.438,0 1.107,3.026 1.486,6.725 1.94,18.941 16.008,44.988 43.636,80.794 21.514,27.883 62.152,73.389 62.753,70.27 0.979,-5.082 -6.513,-24.211 -15.902,-40.603 C 899.053,311.502 871.518,272.737 856.374,255.422 842.071,239.068 823.874,206.804 816.656,185 812.991,173.926 810,161.005 810,156.242 810,153.531 808.472,151 806.835,151 c -0.42,0 -1.245,0.898 -1.833,1.996 M 152.75,266.676 c -3.162,0.233 -5.75,0.75 -5.75,1.148 0,0.398 2.808,2.739 6.24,5.2 8.858,6.354 27.204,24.901 34.994,35.378 6.719,9.035 15.887,25.597 19.708,35.598 3.362,8.802 5.928,19.888 7.076,30.571 6.434,59.893 14.167,106.166 20.622,123.405 1.344,3.588 3.795,10.349 5.447,15.024 6.983,19.762 23.324,48.283 38.64,67.441 54.271,67.885 151.369,140.176 284.773,212.016 7.704,4.149 10.564,6.307 6.5,4.905 -3.239,-1.117 -7.125,-1.065 -32.934,0.442 -49.12,2.867 -106.828,0.499 -154.737,-6.35 -9.444,-1.349 -17.738,-2.454 -18.43,-2.454 -0.692,0 0.732,1.688 3.165,3.75 25.307,21.454 62.145,56.23 75.126,70.921 4.606,5.213 28.567,21.177 43.81,29.187 55.27,29.048 115.198,40.711 178.089,34.659 17.997,-1.731 44.215,-6.394 51.348,-9.131 0.86,-0.33 1.563,-0.191 1.563,0.309 0,1.394 -29.696,10.287 -51,15.272 -67.958,15.902 -133.404,17.933 -193.022,5.992 -52.541,-10.523 -99.354,-31.347 -141.478,-62.935 -17.635,-13.223 -29.235,-23.736 -47,-42.591 -38.73,-41.108 -58.56,-57.539 -101.247,-83.898 l -17.247,-10.65 -15.253,-0.938 C 96.554,735.552 47.717,730.06 14.003,723.457 -0.977,720.523 0,720.563 0,722.879 c 0,1.165 1.199,2.375 3.157,3.186 4.249,1.76 16.262,9.646 27.843,18.277 33.034,24.621 104.335,84.296 128.106,107.217 51.901,50.045 114.016,86.104 182.394,105.883 99.877,28.891 217.592,23.126 336.5,-16.479 33.656,-11.21 84.87,-32.746 83.426,-35.082 C 760.375,904.18 720.752,876.42 703.5,865.298 672.237,845.143 645.35,829.81 620.318,817.861 612.168,813.97 601.45,808.838 596.5,806.456 585.583,801.203 554.835,781.659 532.847,766 482.896,730.425 439.683,689.902 407.445,648.406 391.924,628.427 375.24,601.823 368.309,586 c -2.917,-6.66 -3.286,-8.518 -3.297,-16.589 -0.018,-13.29 -2.605,-38.064 -5.484,-52.5 -8.254,-41.4 -25.287,-76.86 -48.767,-101.528 l -5.823,-6.117 4.281,-0.686 c 2.355,-0.377 10.131,-1.106 17.281,-1.62 33.3,-2.396 70.742,5.041 100.944,20.05 6.569,3.265 12.05,5.829 12.182,5.698 0.452,-0.452 -9.314,-23.23 -13.552,-31.611 C 403.487,356.439 367.704,320.678 323,298.087 293.997,283.43 266.124,274.782 230.5,269.39 c -14.532,-2.2 -20.993,-2.614 -44.5,-2.855 -15.125,-0.156 -30.088,-0.092 -33.25,0.141 m 1235.75,-0.013 c -59.064,5.68 -109.878,23.625 -149.199,52.688 -12.424,9.183 -31.075,27.072 -40.256,38.613 -9.41,11.828 -19.415,27.382 -26.131,40.624 -5.797,11.428 -14.391,32.268 -13.624,33.035 0.234,0.234 3.302,-1.316 6.818,-3.444 35.916,-21.745 79.54,-29.402 119.775,-21.024 l 10.383,2.162 -6.883,6.002 c -10.641,9.28 -28.506,27.543 -33.272,34.014 -7.274,9.875 -7.803,11.9 -8.535,32.667 -1.699,48.197 -6.015,82.931 -11.704,94.21 -1.03,2.041 -1.872,4.237 -1.872,4.88 0,0.644 -3.191,6.813 -7.091,13.71 -21.65,38.284 -49.723,74.013 -89.39,113.765 -21.823,21.871 -24.093,23.995 -39.019,36.528 -43.243,36.307 -101.782,71.246 -149.25,89.078 -2.888,1.085 -5.25,2.549 -5.25,3.253 0,0.704 -3.263,2.775 -7.25,4.603 -49.105,22.508 -82.691,42.926 -90.106,54.778 -3.117,4.981 -3.652,7.56 -2.409,11.609 0.906,2.951 2.504,4.24 11.782,9.506 32.136,18.239 79.701,37.279 121.073,48.465 47.216,12.768 85.283,18.362 131.467,19.322 48.335,1.004 87.882,-3.793 133.943,-16.247 92.389,-24.98 179.428,-80.914 252.806,-162.46 17.801,-19.783 21.544,-23.276 39.407,-36.777 29.121,-22.009 51.693,-36.092 60.92,-38.009 2.575,-0.535 3.975,-1.419 4.215,-2.662 0.423,-2.198 1.248,-2.25 -37.348,2.364 -75.287,9.001 -115.829,11.638 -140,9.107 -32.81,-3.436 -103.157,-3.191 -143.5,0.499 -28.082,2.569 -75.709,9.853 -77.747,11.891 -0.85,0.85 7.825,2.691 19.518,4.141 24.943,3.095 81.248,1.18 133.229,-4.529 20.89,-2.295 56.093,-6.741 60.25,-7.609 1.57,-0.328 2.75,-0.14 2.75,0.439 0,1.373 -37.131,36.534 -54.5,51.611 -67.765,58.819 -132.906,99.084 -201,124.242 -90.777,33.538 -183.961,35.85 -266,6.6 -17.961,-6.403 -41.211,-17.273 -30.5,-14.259 6.465,1.82 37.373,7.832 51,9.921 31.032,4.757 70.537,6.459 93.576,4.032 25.658,-2.703 55.21,-12.365 88.424,-28.911 35.77,-17.819 65.49,-40.794 84,-64.939 0.275,-0.359 9.275,-7.248 20,-15.31 30.738,-23.104 37.782,-29.46 35.348,-31.894 -0.599,-0.599 -7.016,-0.221 -17.399,1.026 -9.047,1.086 -24.324,2.897 -33.949,4.023 -67.203,7.864 -163.168,20.203 -181.25,23.304 -4.263,0.731 -7.75,1.182 -7.75,1.002 0,-0.181 2.362,-1.379 5.25,-2.664 18.432,-8.201 55.841,-27.642 80.75,-41.965 101.001,-58.076 184.519,-128.495 243.762,-205.53 20.702,-26.918 30.621,-43.376 37.752,-62.636 6.323,-17.076 8.411,-28.448 9.459,-51.508 0.513,-11.275 1.585,-24.775 2.383,-30 0.798,-5.225 2.178,-17.6 3.067,-27.5 2.953,-32.903 4.013,-37.534 12.595,-55 9.341,-19.014 24.962,-40.234 44.349,-60.247 6.014,-6.207 10.604,-11.616 10.202,-12.019 -0.757,-0.759 -50.981,-1.253 -58.069,-0.571 M 635.495,414.635 c 3.766,8.806 4.98,35.33 2.008,43.865 -4.005,11.5 -14.703,29.555 -27.802,46.921 -6.237,8.269 -6.432,8.713 -7.799,17.78 -0.867,5.749 -1.398,17.315 -1.391,30.299 0.01,18.152 0.326,22.48 2.335,31.911 2.906,13.642 7.131,25.809 12.458,35.876 6.904,13.047 6.599,13.155 12.655,-4.508 10.101,-29.462 21.904,-55.936 31.723,-71.151 5.536,-8.577 13.665,-17.254 18.454,-19.697 3.64,-1.857 3.652,-1.885 4.396,-10.147 2.021,-22.461 0.246,-43.266 -5.012,-58.726 -7.279,-21.402 -22.974,-38.318 -40.421,-43.566 -2.075,-0.625 -2.293,-0.469 -1.604,1.143 M 956.5,418.91 c -18.399,8.919 -31.675,27.909 -37.114,53.09 -2.007,9.291 -2.621,37.35 -1.057,48.305 0.698,4.888 1.222,5.954 3.318,6.751 14.434,5.488 34.026,40.4 51.878,92.444 2.075,6.05 4.1,11.372 4.501,11.827 1.832,2.081 11.286,-16.091 15.777,-30.327 5.08,-16.099 6.607,-27.264 6.565,-48 -0.023,-11.59 -0.608,-22.062 -1.565,-28.037 l -1.528,-9.537 -9.238,-12.463 c -15.126,-20.408 -23.761,-36.163 -26.144,-47.704 -1.544,-7.475 0.191,-31.588 2.61,-36.265 1.439,-2.783 1.423,-2.994 -0.227,-2.993 -0.977,0 -4.476,1.309 -7.776,2.909 m -642,320.053 c -6.725,1.203 -16.714,1.912 -30.5,2.163 -23.801,0.434 -87.831,0.013 -96.25,-0.633 -3.162,-0.243 -5.75,-0.038 -5.75,0.455 0,1.689 6.525,2.945 31,5.967 109.839,13.564 175.524,16.825 205.5,10.2 l 8,-1.768 -8,-3.083 c -17.944,-6.917 -33.471,-11.079 -51.243,-13.734 -14.085,-2.104 -39.759,-1.893 -52.757,0.433"
     stroke="none"
     fill="#040404"
     fill-rule="evenodd"
     id="path1"
     style="fill:#dbdbdb;fill-opacity:1"
     transform="matrix(0.45684733,0,0,0.45684733,0.00594286,-0.00491538)" />
</svg>
